<svg
    width="24"
    height="24"
    viewBox="0 0 24 24"
    fill="none"
    xmlns="http://www.w3.org/2000/svg"
>
    <path
        d="M17.9176 2.38687C17.5744 2.52901 17.2626 2.73735 17 3L3.5 16.5L2 22L7.5 20.5L21 7C21.2626 6.73735 21.471 6.42555 21.6131 6.08239C21.7553 5.73923 21.8284 5.37143 21.8284 5C21.8284 4.62856 21.7553 4.26077 21.6131 3.9176C21.471 3.57444 21.2626 3.26264 21 3C20.7374 2.73735 20.4256 2.52901 20.0824 2.38687C19.7392 2.24473 19.3714 2.17157 19 2.17157C18.6286 2.17157 18.2608 2.24473 17.9176 2.38687Z"
        stroke="currentColor"
        stroke-width="2"
        stroke-linecap="round"
        stroke-linejoin="round"
    />
</svg>
