<svg
    width="24"
    height="24"
    viewBox="0 0 24 24"
    fill="none"
    xmlns="http://www.w3.org/2000/svg"
>
    <g clip-path="url(#clip0_276_1226)">
        <path
            d="M12.0001 22.13L22.6501 14.39C22.8018 14.2918 22.9178 14.1473 22.9809 13.978C23.0439 13.8087 23.0507 13.6235 23.0001 13.45L21.7301 9.69002L19.2901 2.18002C19.2694 2.11164 19.2315 2.04969 19.1801 2.00002C19.1009 1.92764 18.9975 1.88751 18.8901 1.88751C18.7828 1.88751 18.6794 1.92764 18.6001 2.00002C18.5515 2.04403 18.5138 2.09883 18.4901 2.16002L16.0501 9.67002H7.95014L5.51014 2.18002C5.48939 2.11164 5.45153 2.04969 5.40014 2.00002C5.32091 1.92764 5.21746 1.88751 5.11014 1.88751C5.00282 1.88751 4.89938 1.92764 4.82014 2.00002C4.77148 2.04403 4.73381 2.09883 4.71014 2.16002L2.27014 9.67002L1.05014 13.45C0.994592 13.6183 0.993694 13.7999 1.04758 13.9687C1.10146 14.1376 1.20737 14.285 1.35014 14.39L12.0001 22.13Z"
            stroke="currentColor"
            stroke-width="2"
            stroke-linecap="round"
            stroke-linejoin="round"
        />
    </g>
    <defs>
        <clipPath id="clip0_276_1226">
            <rect width="24" height="24" fill="white" />
        </clipPath>
    </defs>
</svg>
