<svg
    width="24"
    height="24"
    viewBox="0 0 24 24"
    fill="none"
    xmlns="http://www.w3.org/2000/svg"
>
    <path
        d="M19.0555 3.41708C19.7229 3.69365 20.3294 4.099 20.8401 4.61C21.3511 5.12076 21.7565 5.72719 22.033 6.39464C22.3096 7.0621 22.4519 7.77751 22.4519 8.5C22.4519 9.22249 22.3096 9.9379 22.033 10.6054C21.7565 11.2728 21.3511 11.8792 20.8401 12.39L19.7801 13.45L12.0001 21.23L4.22012 13.45L3.16012 12.39C2.12843 11.3583 1.54883 9.95903 1.54883 8.5C1.54883 7.04097 2.12843 5.64169 3.16012 4.61C4.19181 3.57831 5.59109 2.99871 7.05012 2.99871C8.50915 2.99871 9.90843 3.57831 10.9401 4.61L12.0001 5.67L13.0601 4.61C13.5709 4.099 14.1773 3.69365 14.8448 3.41708C15.5122 3.14052 16.2276 2.99817 16.9501 2.99817C17.6726 2.99817 18.388 3.14052 19.0555 3.41708Z"
        stroke="currentColor"
        stroke-width="2"
        stroke-linecap="round"
        stroke-linejoin="round"
    />
    <path
        d="M22 8.13945C22.0015 8.81374 21.8682 9.48164 21.6076 10.1045C21.3471 10.7274 20.9646 11.2929 20.4823 11.7682L12.5097 19.7888C12.4432 19.8557 12.364 19.9088 12.2766 19.9451C12.1893 19.9813 12.0955 20 12.0008 20C11.9061 20 11.8123 19.9813 11.725 19.9451C11.6376 19.9088 11.5584 19.8557 11.4919 19.7888L3.51935 11.7682C2.54736 10.8058 2.00084 9.50004 2 8.13815C1.99916 6.77626 2.54408 5.46982 3.51489 4.50623C4.48569 3.54264 5.80285 3.00083 7.17661 3C8.55037 2.99917 9.8682 3.53939 10.8402 4.5018L12.0008 5.57716L13.1695 4.49826C13.8948 3.78276 14.8177 3.29634 15.8217 3.10041C16.8257 2.90447 17.8657 3.00782 18.8104 3.39739C19.7552 3.78695 20.5624 4.44529 21.1301 5.28927C21.6977 6.13325 22.0004 7.12505 22 8.13945Z"
        fill="currentColor"
    />
</svg>
