<svg
    width="24"
    height="24"
    viewBox="0 0 24 24"
    fill="none"
    xmlns="http://www.w3.org/2000/svg"
>
    <path
        d="M19.0555 3.41708C19.7229 3.69365 20.3294 4.099 20.8401 4.61C21.3511 5.12076 21.7565 5.72719 22.033 6.39464C22.3096 7.0621 22.4519 7.77751 22.4519 8.5C22.4519 9.22249 22.3096 9.9379 22.033 10.6054C21.7565 11.2728 21.3511 11.8792 20.8401 12.39L19.7801 13.45L12.0001 21.23L4.22012 13.45L3.16012 12.39C2.12843 11.3583 1.54883 9.95903 1.54883 8.5C1.54883 7.04097 2.12843 5.64169 3.16012 4.61C4.19181 3.57831 5.59109 2.99871 7.05012 2.99871C8.50915 2.99871 9.90843 3.57831 10.9401 4.61L12.0001 5.67L13.0601 4.61C13.5709 4.099 14.1773 3.69365 14.8448 3.41708C15.5122 3.14052 16.2276 2.99817 16.9501 2.99817C17.6726 2.99817 18.388 3.14052 19.0555 3.41708Z"
        stroke="currentColor"
        stroke-width="2"
        stroke-linecap="round"
        stroke-linejoin="round"
    />
</svg>
