<svg
    width="24"
    height="24"
    viewBox="0 0 24 24"
    fill="none"
    xmlns="http://www.w3.org/2000/svg"
>
    <path
        d="M22 7C22 4.23858 19.7614 2 17 2H12H7C4.23858 2 2 4.23858 2 7V17C2 19.7614 4.23858 22 7 22H17C19.7614 22 22 19.7614 22 17V7Z"
        stroke="currentColor"
        stroke-width="2"
        stroke-linecap="round"
        stroke-linejoin="round"
    />
    <path
        d="M15.594 13.799C15.9815 13.0522 16.1236 12.2022 16.0002 11.37C15.8743 10.5211 15.4787 9.73515 14.8719 9.1283C14.265 8.52146 13.4791 8.12588 12.6302 8C11.7979 7.87658 10.948 8.01874 10.2012 8.40624C9.45438 8.79374 8.84878 9.40685 8.47052 10.1584C8.09226 10.9099 7.9606 11.7615 8.09426 12.5922C8.22793 13.4229 8.62011 14.1902 9.21503 14.7852C9.80996 15.3801 10.5773 15.7723 11.408 15.9059C12.2386 16.0396 13.0903 15.9079 13.8418 15.5297C14.5933 15.1514 15.2065 14.5458 15.594 13.799Z"
        stroke="currentColor"
        stroke-width="2"
        stroke-linecap="round"
        stroke-linejoin="round"
    />
    <path
        d="M17.5 6.5H17.51"
        stroke="currentColor"
        stroke-width="2"
        stroke-linecap="round"
        stroke-linejoin="round"
    />
</svg>
