<svg
    width="24"
    height="24"
    viewBox="0 0 24 24"
    fill="none"
    xmlns="http://www.w3.org/2000/svg"
>
    <g clip-path="url(#clip0_276_1078)">
        <path
            d="M1 1L23 23"
            stroke="currentColor"
            stroke-width="2"
            stroke-linecap="round"
            stroke-linejoin="round"
        />
        <path
            d="M9 9V12C9.00052 12.593 9.17675 13.1725 9.50643 13.6653C9.83611 14.1582 10.3045 14.5423 10.8523 14.7691C11.4002 14.996 12.0029 15.0554 12.5845 14.9399C13.1661 14.8243 13.7005 14.539 14.12 14.12M15 9.34V4C15.0007 3.25603 14.725 2.53832 14.2264 1.9862C13.7277 1.43408 13.0417 1.08694 12.3015 1.01217C11.5613 0.937406 10.8197 1.14034 10.2207 1.58159C9.62172 2.02283 9.20805 2.67091 9.06 3.4"
            stroke="currentColor"
            stroke-width="2"
            stroke-linecap="round"
            stroke-linejoin="round"
        />
        <path
            d="M17.0002 16.9107C16.024 17.9015 14.7723 18.5796 13.4058 18.8582C12.0393 19.1367 10.6202 19.003 9.33068 18.4741C8.04115 17.9451 6.93995 17.0452 6.16836 15.8896C5.39677 14.7341 4.98998 13.3757 5.00019 11.9887V10M19.0002 10V11.9887C18.9998 12.3988 18.963 12.8081 18.8902 13.2117"
            stroke="currentColor"
            stroke-width="2"
            stroke-linecap="round"
            stroke-linejoin="round"
        />
        <path
            d="M12 19V23"
            stroke="currentColor"
            stroke-width="2"
            stroke-linecap="round"
            stroke-linejoin="round"
        />
        <path
            d="M8 23H16"
            stroke="currentColor"
            stroke-width="2"
            stroke-linecap="round"
            stroke-linejoin="round"
        />
    </g>
    <defs>
        <clipPath id="clip0_276_1078">
            <rect width="24" height="24" fill="white" />
        </clipPath>
    </defs>
</svg>
