<svg
    width="24"
    height="24"
    viewBox="0 0 24 24"
    fill="currentColor"
    xmlns="http://www.w3.org/2000/svg"
>
    <path
        fill-rule="evenodd"
        clip-rule="evenodd"
        d="M0 12C0 8.78984 2.4943 6.51428 5.67691 6.51428C6.61974 6.51428 7.54848 6.89294 8.33377 7.33515C9.13919 7.7887 9.91266 8.37772 10.5725 8.94176C11.2365 9.50934 11.8106 10.0735 12.2177 10.494C12.4219 10.705 12.5858 10.8817 12.6997 11.0069C12.7567 11.0695 12.8013 11.1194 12.8324 11.1544C12.8479 11.1719 12.8601 11.1857 12.8687 11.1955L12.8789 11.2073L12.8831 11.212L12.8834 11.2124C12.8835 11.2125 12.8838 11.2128 12 12C11.1162 12.7872 11.1163 12.7873 11.1165 12.7874L11.1157 12.7865L11.1098 12.7798C11.1042 12.7734 11.0951 12.7631 11.0827 12.7491C11.058 12.7213 11.0201 12.6789 10.9703 12.6242C10.8706 12.5146 10.7234 12.3558 10.5381 12.1643C10.166 11.78 9.64722 11.2708 9.05562 10.7651C8.45988 10.2558 7.81518 9.77154 7.19112 9.42012C6.54693 9.05737 6.03489 8.89938 5.67691 8.89938C3.65633 8.89938 2.35294 10.2422 2.35294 12C2.35294 13.7578 3.65633 15.1006 5.67691 15.1006C6.024 15.1006 6.51847 14.9519 7.14163 14.6075C7.74623 14.2733 8.37362 13.8103 8.96005 13.3161L10.4643 15.1501C9.81231 15.6995 9.055 16.2666 8.26803 16.7015C7.49963 17.1262 6.59568 17.4857 5.67691 17.4857C2.4943 17.4857 0 15.2102 0 12ZM11.1166 12.7876C11.1165 12.7874 11.1162 12.7872 12 12C12.8838 11.2128 12.8837 11.2127 12.8835 11.2126L12.8843 11.2135L12.8902 11.2202C12.8958 11.2266 12.9049 11.2369 12.9173 11.2509C12.942 11.2787 12.9799 11.3211 13.0297 11.3758C13.1294 11.4854 13.2766 11.6442 13.4619 11.8356C13.834 12.22 14.3528 12.7292 14.9444 13.2349C15.5401 13.7442 16.1848 14.2285 16.8089 14.5799C17.4531 14.9426 17.9651 15.1006 18.3231 15.1006C20.3437 15.1006 21.6471 13.7578 21.6471 12C21.6471 10.2422 20.3437 8.89938 18.3231 8.89938C17.9767 8.89938 17.4834 9.04749 16.8616 9.39073C16.2583 9.72378 15.632 10.1854 15.0462 10.6787L13.5428 8.84393C14.1943 8.29542 14.9505 7.72985 15.7363 7.2961C16.5036 6.87254 17.4059 6.51428 18.3231 6.51428C21.5057 6.51428 24 8.78984 24 12C24 15.2102 21.5057 17.4857 18.3231 17.4857C17.3803 17.4857 16.4515 17.1071 15.6662 16.6648C14.8608 16.2113 14.0873 15.6223 13.4275 15.0582C12.7635 14.4907 12.1894 13.9265 11.7823 13.506C11.5781 13.295 11.4142 13.1183 11.3003 12.9931C11.2433 12.9305 11.1987 12.8806 11.1676 12.8456C11.1521 12.8281 11.1399 12.8143 11.1313 12.8044L11.1211 12.7927L11.1169 12.788L11.1166 12.7876Z"
        fill="currentColor"
    />
</svg>
