<svg
    width="24"
    height="24"
    viewBox="0 0 24 24"
    fill="none"
    xmlns="http://www.w3.org/2000/svg"
>
    <path
        d="M14.414 7C14.414 6.73825 14.5166 6.48693 14.6999 6.3L14.7099 6.29L18.4699 2.53C17.3587 2.02717 16.1206 1.87492 14.9207 2.09354C13.7208 2.31217 12.616 2.89129 11.7536 3.75372C10.8911 4.61616 10.312 5.72095 10.0934 6.92086C9.87477 8.12077 10.027 9.35881 10.5299 10.47L3.61986 17.38C3.22203 17.7778 2.99854 18.3174 2.99854 18.88C2.99854 19.4426 3.22203 19.9822 3.61986 20.38C4.01768 20.7778 4.55725 21.0013 5.11986 21.0013C5.68246 21.0013 6.22203 20.7778 6.61986 20.38L13.5299 13.47C14.641 13.9728 15.8791 14.1251 17.079 13.9065C18.2789 13.6878 19.3837 13.1087 20.2461 12.2463C21.1086 11.3838 21.6877 10.2791 21.9063 9.07915C22.1249 7.87924 21.9727 6.64119 21.4699 5.53L17.6999 9.3C17.5129 9.48323 17.2616 9.58586 16.9999 9.58586C16.7381 9.58586 16.4868 9.48323 16.2999 9.3L14.6999 7.7C14.5166 7.51307 14.414 7.26176 14.414 7Z"
        stroke="currentColor"
        stroke-width="2"
        stroke-linecap="round"
        stroke-linejoin="round"
    />
</svg>
