<svg
    width="24"
    height="24"
    viewBox="0 0 24 24"
    fill="none"
    xmlns="http://www.w3.org/2000/svg"
>
    <path
        d="M1.81978 18L10.2898 3.86C10.468 3.56611 10.7191 3.32312 11.0186 3.15448C11.3181 2.98585 11.656 2.89725 11.9998 2.89725C12.3435 2.89725 12.6814 2.98585 12.981 3.15448C13.2805 3.32312 13.5315 3.56611 13.7098 3.86L22.1798 18C22.3544 18.3024 22.4468 18.6453 22.4478 18.9945C22.4488 19.3437 22.3583 19.6871 22.1854 19.9905C22.0124 20.2939 21.7631 20.5467 21.4621 20.7239C21.1611 20.901 20.819 20.9962 20.4698 21H3.52978C3.18058 20.9962 2.83847 20.901 2.53748 20.7239C2.2365 20.5467 1.98714 20.2939 1.8142 19.9905C1.64127 19.6871 1.55079 19.3437 1.55177 18.9945C1.55274 18.6453 1.64514 18.3024 1.81978 18Z"
        stroke="currentColor"
        stroke-width="2"
        stroke-linecap="round"
        stroke-linejoin="round"
    />
</svg>
