<svg
    width="24"
    height="24"
    viewBox="0 0 24 24"
    fill="none"
    xmlns="http://www.w3.org/2000/svg"
>
    <path
        d="M19.86 4.53C20.9821 4.19211 22.0424 3.67548 23 3C22.6608 4.39271 21.9406 5.66349 20.92 6.67C20.9723 6.94359 20.9991 7.22145 21 7.5C21 19 10 24 1 19C3.48716 19.0989 5.94053 18.398 8 17C-1 13 3 4 3 4C4.01032 5.43864 5.36074 6.60508 6.93101 7.39545C8.50127 8.18581 10.2426 8.57557 12 8.53V7.53C11.9877 6.61234 12.2575 5.71303 12.773 4.95372C13.2884 4.1944 14.0247 3.61171 14.8821 3.28445C15.7395 2.9572 16.6767 2.90116 17.567 3.12393C18.4573 3.34669 19.2577 3.83751 19.86 4.53Z"
        stroke="currentColor"
        stroke-width="2"
        stroke-linecap="round"
        stroke-linejoin="round"
    />
</svg>
